<svg width="28" height="30" viewBox="0 0 28 30" fill="none" xmlns="http://www.w3.org/2000/svg">
<g id="Group">
<g id="Group_2">
<path id="Vector" d="M26.9375 18.047L15.4648 0.837891V14.7348C17.1662 15.3415 18.3945 16.9522 18.3945 18.8595C18.3945 21.2827 16.4232 23.254 14 23.254C11.5767 23.254 9.60545 21.2827 9.60545 18.8595C9.60545 16.9522 10.8338 15.3415 12.5351 14.7348V0.837891L1.06248 18.047C0.674788 18.6277 0.752034 19.4017 1.24559 19.8952C3.93475 22.5844 5.65369 26.0487 6.31707 29.7648C7.33465 29.3521 8.44139 29.1134 9.60545 29.1134H18.3945C19.5586 29.1134 20.6653 29.352 21.6829 29.7647C22.3463 26.0483 24.0652 22.5844 26.7544 19.8952C27.2479 19.4017 27.3252 18.6277 26.9375 18.047Z" fill="white"/>
</g>
</g>
</svg>
